<?xml version="1.0" standalone="no"?>
<!DOCTYPE svg PUBLIC "-//W3C//DTD SVG 20010904//EN"
 "http://www.w3.org/TR/2001/REC-SVG-20010904/DTD/svg10.dtd">
<svg version="1.0" xmlns="http://www.w3.org/2000/svg"
 width="256.000000pt" height="256.000000pt" viewBox="0 0 256.000000 256.000000"
 preserveAspectRatio="xMidYMid meet">
<metadata>
Created by potrace 1.13, written by Peter Selinger 2001-2015
</metadata>
<g transform="translate(0.000000,256.000000) scale(0.100000,-0.100000)"
fill="#000000" stroke="none">
<path d="M1095 2545 c-362 -58 -664 -248 -865 -547 -98 -145 -157 -287 -196
-469 -25 -117 -25 -371 0 -488 119 -553 538 -945 1089 -1020 588 -80 1175 292
1361 862 47 144 60 232 60 402 0 276 -64 490 -214 713 -273 405 -763 623
-1235 547z m461 -306 c62 -6 163 -21 226 -33 l113 -21 3 -144 c2 -130 1 -143
-14 -137 -58 22 -265 69 -368 82 -270 36 -466 -12 -585 -141 -197 -217 -239
-655 -88 -939 62 -116 163 -207 282 -251 195 -74 470 -49 712 65 l83 39 0
-139 0 -139 -27 -15 c-50 -25 -193 -66 -291 -83 -124 -21 -468 -24 -557 -5
-280 62 -456 188 -575 415 -91 172 -126 340 -117 561 7 158 24 254 69 365 119
302 351 476 690 520 94 13 317 12 444 0z"/>
</g>
</svg>
